<?xml version="1.0" standalone="no"?>
<!DOCTYPE svg PUBLIC "-//W3C//DTD SVG 20010904//EN"
 "http://www.w3.org/TR/2001/REC-SVG-20010904/DTD/svg10.dtd">
<svg version="1.0" xmlns="http://www.w3.org/2000/svg"
 width="320.000000pt" height="512.000000pt" viewBox="0 0 320.000000 512.000000"
 preserveAspectRatio="xMidYMid meet">

<g transform="translate(0.000000,512.000000) scale(0.100000,-0.100000)"
fill="#000000" stroke="none">
<path d="M315 3840 l-320 -320 480 -480 480 -480 -480 -480 -480 -480 323
-322 322 -323 480 480 480 480 480 -480 480 -480 322 323 323 322 -480 480
-480 480 480 480 480 480 -323 322 -322 323 -480 -480 -480 -480 -478 478
c-262 262 -479 477 -482 477 -3 0 -149 -144 -325 -320z"/>
</g>
</svg>
