<?xml version="1.0" standalone="no"?>
<!DOCTYPE svg PUBLIC "-//W3C//DTD SVG 20010904//EN"
 "http://www.w3.org/TR/2001/REC-SVG-20010904/DTD/svg10.dtd">
<svg version="1.0" xmlns="http://www.w3.org/2000/svg"
 width="512.000000pt" height="512.000000pt" viewBox="0 0 512.000000 512.000000"
 preserveAspectRatio="xMidYMid meet">

<g transform="translate(0.000000,512.000000) scale(0.100000,-0.100000)"
fill="#000000" stroke="none">
<path d="M3068 3677 c-31 -14 -79 -43 -105 -65 -26 -22 -335 -328 -685 -679
-424 -424 -642 -650 -652 -673 -7 -19 -64 -223 -126 -452 -103 -383 -112 -420
-100 -448 12 -30 54 -60 84 -60 8 0 198 49 421 110 224 60 422 110 439 110 28
0 102 71 713 683 783 783 738 728 738 902 0 145 -15 171 -218 373 -198 195
-229 215 -362 219 -77 3 -98 0 -147 -20z m199 -177 c32 -13 307 -281 329 -322
8 -15 14 -49 14 -76 0 -53 -32 -113 -89 -167 l-32 -29 -242 242 -241 242 39
40 c69 71 150 96 222 70z m-152 -490 l240 -240 -513 -513 -512 -512 -242 243
-243 242 510 510 c280 280 512 510 515 510 3 0 113 -108 245 -240z m-993
-1341 c-13 -11 -482 -132 -488 -126 -5 5 50 222 113 446 l15 54 184 -184 c101
-101 180 -186 176 -190z"/>
<path d="M2557 2592 l-297 -297 68 -68 67 -67 300 300 300 300 -65 65 c-35 36
-67 65 -70 65 -3 0 -139 -134 -303 -298z"/>
</g>
</svg>
